<svg viewBox="0 0 400 300" xmlns="http://www.w3.org/2000/svg"><path d="m249.79 79.35v141.3a9.9 9.9 0 0 1 -10.08 9.7h-80.21a9.9 9.9 0 0 1 -10.09-9.7v-141.3a9.9 9.9 0 0 1 10.09-9.7h80.21a9.9 9.9 0 0 1 10.08 9.7z" fill="#68e1fd"/><path d="m239.71 231.35h-80.21a10.91 10.91 0 0 1 -11.09-10.7v-141.3a10.91 10.91 0 0 1 11.09-10.7h80.21a10.91 10.91 0 0 1 11.08 10.7v141.3a10.91 10.91 0 0 1 -11.08 10.7zm-80.21-160.7a8.91 8.91 0 0 0 -9.09 8.7v141.3a8.91 8.91 0 0 0 9.09 8.7h80.21a8.9 8.9 0 0 0 9.08-8.7v-141.3a8.9 8.9 0 0 0 -9.08-8.7z" fill="#093f68"/><path d="m149.73 88.36h99.74v120.32h-99.74z" fill="#fff"/><path d="m249.47 209.68h-99.74a1 1 0 0 1 -1-1v-120.32a1 1 0 0 1 1-1h99.74a1 1 0 0 1 1 1v120.32a1 1 0 0 1 -1 1zm-98.74-2h97.74v-118.32h-97.74z" fill="#093f68"/><circle cx="215.01" cy="79.97" fill="#093f68" r="1.56"/><path d="m207.56 81h-24.93a1 1 0 0 1 0-2h24.93a1 1 0 0 1 0 2z" fill="#093f68"/><path d="m199.6 225.6a6.68 6.68 0 1 1 6.67-6.67 6.68 6.68 0 0 1 -6.67 6.67zm0-11.35a4.68 4.68 0 1 0 4.67 4.68 4.68 4.68 0 0 0 -4.67-4.68z" fill="#093f68"/><path d="m162.05 105.52h-24.65l13.41-17.36h19.37z" fill="#f56132"/><path d="m162.05 106.52h-24.65a1 1 0 0 1 -.9-.56 1 1 0 0 1 .11-1l13.39-17.41a1 1 0 0 1 .79-.39h19.37a1 1 0 0 1 .84.46 1 1 0 0 1 .07 1l-8.07 17.32a1 1 0 0 1 -.95.58zm-22.61-2h22l7.19-15.36h-17.33z" fill="#093f68"/><path d="m137.4 105.52h24.65a0 0 0 0 1 0 0v2.06a11.6 11.6 0 0 1 -11.6 11.6h-1.45a11.6 11.6 0 0 1 -11.6-11.6v-2.06a0 0 0 0 1 0 0z" fill="#f56132"/><path d="m150.46 120.18h-1.46a12.61 12.61 0 0 1 -12.6-12.6v-2.06a1 1 0 0 1 1-1h24.65a1 1 0 0 1 1 1v2.06a12.61 12.61 0 0 1 -12.59 12.6zm-12.06-13.66v1.06a10.61 10.61 0 0 0 10.6 10.6h1.46a10.61 10.61 0 0 0 10.59-10.6v-1.06z" fill="#093f68"/><path d="m187.19 105.52h-24.65l8.02-17.36h19.37z" fill="#fff"/><path d="m187.19 106.52h-24.65a1 1 0 0 1 -.85-.46 1 1 0 0 1 -.06-1l8-17.36a1 1 0 0 1 .91-.58h19.37a1 1 0 0 1 1 1.16l-2.74 17.35a1 1 0 0 1 -.98.89zm-23.09-2h22.24l2.42-15.36h-17.56z" fill="#093f68"/><path d="m162.54 105.52h24.65a0 0 0 0 1 0 0v2.06a11.6 11.6 0 0 1 -11.6 11.6h-1.46a11.6 11.6 0 0 1 -11.6-11.6v-2.06a0 0 0 0 1 .01 0z" fill="#fff"/><path d="m175.59 120.18h-1.46a12.61 12.61 0 0 1 -12.59-12.6v-2.06a1 1 0 0 1 1-1h24.65a1 1 0 0 1 1 1v2.06a12.61 12.61 0 0 1 -12.6 12.6zm-12.05-13.66v1.06a10.61 10.61 0 0 0 10.59 10.6h1.46a10.61 10.61 0 0 0 10.6-10.6v-1.06z" fill="#093f68"/><path d="m212.33 105.52h-24.66l2.64-17.36h19.38z" fill="#f56132"/><path d="m212.33 106.52h-24.66a1 1 0 0 1 -.75-.35 1 1 0 0 1 -.23-.8l2.64-17.37a1 1 0 0 1 1-.85h19.38a1 1 0 0 1 1 .85l2.64 17.36a1 1 0 0 1 -.23.8 1 1 0 0 1 -.79.36zm-23.49-2h22.32l-2.33-15.36h-17.66z" fill="#093f68"/><path d="m187.67 105.52h24.65a0 0 0 0 1 0 0v2.06a11.6 11.6 0 0 1 -11.6 11.6h-1.46a11.6 11.6 0 0 1 -11.6-11.6v-2.06a0 0 0 0 1 .01 0z" fill="#f56132"/><path d="m200.73 120.18h-1.46a12.61 12.61 0 0 1 -12.6-12.6v-2.06a1 1 0 0 1 1-1h24.66a1 1 0 0 1 1 1v2.06a12.61 12.61 0 0 1 -12.6 12.6zm-12.06-13.66v1.06a10.62 10.62 0 0 0 10.6 10.6h1.46a10.62 10.62 0 0 0 10.6-10.6v-1.06z" fill="#093f68"/><path d="m237.46 105.52h-24.65l-2.74-17.36h19.37z" fill="#fff"/><path d="m237.46 106.52h-24.65a1 1 0 0 1 -1-.85l-2.74-17.35a1 1 0 0 1 1-1.16h19.37a1 1 0 0 1 .91.58l8 17.36a1 1 0 0 1 -.06 1 1 1 0 0 1 -.83.42zm-23.8-2h22.24l-7.1-15.36h-17.56z" fill="#093f68"/><path d="m212.81 105.52h24.65a0 0 0 0 1 0 0v2.06a11.6 11.6 0 0 1 -11.6 11.6h-1.46a11.6 11.6 0 0 1 -11.6-11.6v-2.06a0 0 0 0 1 0 0z" fill="#fff"/><path d="m225.87 120.18h-1.46a12.61 12.61 0 0 1 -12.6-12.6v-2.06a1 1 0 0 1 1-1h24.65a1 1 0 0 1 1 1v2.06a12.61 12.61 0 0 1 -12.59 12.6zm-12.06-13.66v1.06a10.61 10.61 0 0 0 10.6 10.6h1.46a10.61 10.61 0 0 0 10.59-10.6v-1.06z" fill="#093f68"/><path d="m262.6 105.52h-24.65l-8.13-17.36h19.37z" fill="#f56132"/><path d="m262.6 106.52h-24.6a1 1 0 0 1 -.91-.58l-8.13-17.36a1 1 0 0 1 .07-1 1 1 0 0 1 .84-.46h19.37a1 1 0 0 1 .79.39l13.41 17.36a1 1 0 0 1 .11 1 1 1 0 0 1 -.95.65zm-24-2h22l-11.9-15.36h-17.31z" fill="#093f68"/><path d="m237.95 105.52h24.65a0 0 0 0 1 0 0v2.06a11.6 11.6 0 0 1 -11.6 11.6h-1.46a11.6 11.6 0 0 1 -11.6-11.6v-2.06a0 0 0 0 1 0 0z" fill="#f56132"/><path d="m251 120.18h-1.46a12.61 12.61 0 0 1 -12.54-12.6v-2.06a1 1 0 0 1 1-1h24.6a1 1 0 0 1 1 1v2.06a12.61 12.61 0 0 1 -12.6 12.6zm-12-13.66v1.06a10.61 10.61 0 0 0 10.59 10.6h1.41a10.61 10.61 0 0 0 10.6-10.6v-1.06z" fill="#093f68"/><path d="m271.11 230.35h-38.86l3.01-38.87h32.84z" fill="#ffbc0e"/><path d="m271.11 231.35h-38.86a1 1 0 0 1 -.74-.32 1 1 0 0 1 -.26-.76l3-38.86a1 1 0 0 1 1-.93h32.85a1 1 0 0 1 1 .93l3 38.86a1.05 1.05 0 0 1 -.26.76 1 1 0 0 1 -.73.32zm-37.78-2h36.67l-2.86-36.87h-31z" fill="#093f68"/><path d="m258.71 196.93a1 1 0 0 1 -1-1v-7.23a6 6 0 1 0 -12.06 0v7.23a1 1 0 0 1 -2 0v-7.23a8 8 0 1 1 16.06 0v7.23a1 1 0 0 1 -1 1z" fill="#093f68"/><path d="m124.27 200.89h42.05v29.46h-42.05z" fill="#70cc40"/><path d="m166.32 231.35h-42a1 1 0 0 1 -1-1v-29.46a1 1 0 0 1 1-1h42.05a1 1 0 0 1 1 1v29.46a1 1 0 0 1 -1.05 1zm-41-2h40.05v-27.46h-40z" fill="#093f68"/><path d="m140.28 200.89h10.03v10.03h-10.03z" fill="#ffbc0e"/><path d="m150.31 211.92h-10a1 1 0 0 1 -1-1v-10a1 1 0 0 1 1-1h10a1 1 0 0 1 1 1v10a1 1 0 0 1 -1 1zm-9-2h8v-8h-8z" fill="#093f68"/><path d="m137.22 225.6h-6.57a1 1 0 0 1 0-2h6.57a1 1 0 0 1 0 2z" fill="#093f68"/><path d="m131.29 177.24h33.75v23.65h-33.75z" fill="#f56132"/><path d="m165 201.89h-33.71a1 1 0 0 1 -1-1v-23.65a1 1 0 0 1 1-1h33.71a1 1 0 0 1 1 1v23.65a1 1 0 0 1 -1 1zm-32.75-2h31.75v-21.65h-31.71z" fill="#093f68"/><path d="m144.14 177.24h8.05v8.05h-8.05z" fill="#ffbc0e"/><path d="m152.19 186.29h-8.05a1 1 0 0 1 -1-1v-8a1 1 0 0 1 1-1h8.05a1 1 0 0 1 1 1v8a1 1 0 0 1 -1 1zm-7.05-2h6.05v-6h-6.05z" fill="#093f68"/><path d="m141.68 197.27h-5.27a1 1 0 0 1 0-2h5.27a1 1 0 0 1 0 2z" fill="#093f68"/><rect fill="#68e1fd" height="8.26" rx="3.94" width="58.02" x="170.99" y="138.43"/><path d="m225.07 147.69h-50.14a5 5 0 0 1 -4.94-4.95v-.37a4.94 4.94 0 0 1 4.94-4.94h50.14a4.94 4.94 0 0 1 4.94 4.94v.37a5 5 0 0 1 -4.94 4.95zm-50.14-8.26a2.94 2.94 0 0 0 -2.94 2.94v.37a3 3 0 0 0 2.94 2.95h50.14a3 3 0 0 0 2.94-2.95v-.37a2.94 2.94 0 0 0 -2.94-2.94z" fill="#093f68"/><path d="m216.54 175h-33.08a3.68 3.68 0 0 1 -3.56-3.06l-4.78-25.21h49.76l-4.78 25.17a3.68 3.68 0 0 1 -3.56 3.1z" fill="#68e1fd"/><g fill="#093f68"><path d="m216.54 176h-33.08a4.69 4.69 0 0 1 -4.54-3.87l-4.78-25.22a1 1 0 0 1 .21-.82 1 1 0 0 1 .77-.36h49.76a1 1 0 0 1 .77.36 1 1 0 0 1 .21.82l-4.78 25.22a4.69 4.69 0 0 1 -4.54 3.87zm-40.21-28.27 4.56 24a2.67 2.67 0 0 0 2.57 2.25h33.08a2.67 2.67 0 0 0 2.57-2.25l4.56-24z"/><rect height="19.15" rx="1.92" width="3.85" x="186.94" y="150.47"/><path d="m188.86 170.61a2.92 2.92 0 0 1 -2.92-2.92v-15.3a2.93 2.93 0 0 1 5.85 0v15.3a2.93 2.93 0 0 1 -2.93 2.92zm0-19.14a.92.92 0 0 0 -.92.92v15.3a.93.93 0 0 0 1.85 0v-15.3a.93.93 0 0 0 -.93-.92z"/><rect height="19.15" rx="1.92" width="3.85" x="198.08" y="150.47"/><path d="m200 170.61a2.92 2.92 0 0 1 -2.92-2.92v-15.3a2.92 2.92 0 0 1 5.84 0v15.3a2.92 2.92 0 0 1 -2.92 2.92zm0-19.14a.92.92 0 0 0 -.92.92v15.3a.92.92 0 1 0 1.84 0v-15.3a.92.92 0 0 0 -.92-.92z"/><rect height="19.15" rx="1.92" width="3.85" x="209.22" y="150.47"/><path d="m211.14 170.61a2.93 2.93 0 0 1 -2.93-2.92v-15.3a2.93 2.93 0 0 1 5.85 0v15.3a2.92 2.92 0 0 1 -2.92 2.92zm0-19.14a.93.93 0 0 0 -.93.92v15.3a.93.93 0 0 0 1.85 0v-15.3a.92.92 0 0 0 -.92-.92z"/></g><path d="m177.84 144a2 2 0 0 1 -1.13-3.59l18.69-13a2 2 0 0 1 2.26 3.24l-18.66 13.03a2 2 0 0 1 -1.16.32z" fill="#68e1fd"/><path d="m177.84 145a3 3 0 0 1 -1.7-5.41l18.69-13.05a3 3 0 0 1 3.4 4.88l-18.69 13.08a3 3 0 0 1 -1.7.5zm18.69-17a1 1 0 0 0 -.56.17l-18.69 13a1 1 0 0 0 -.24 1.36 1 1 0 0 0 1.36.24l18.68-13.05a1 1 0 0 0 -.38-1.76z" fill="#093f68"/><path d="m222.16 144a2 2 0 0 0 1.13-3.59l-18.69-13a2 2 0 0 0 -2.26 3.24l18.66 13.03a2 2 0 0 0 1.16.32z" fill="#68e1fd"/><path d="m222.16 145a3 3 0 0 1 -1.7-.53l-18.69-13.05a3 3 0 0 1 -.73-4.14 3 3 0 0 1 4.13-.74l18.69 13.05a3 3 0 0 1 -1.7 5.41zm-18.69-17h-.17a1 1 0 0 0 -.38 1.76l18.68 13.05a1 1 0 0 0 1.36-.24 1 1 0 0 0 -.24-1.36l-18.69-13a1 1 0 0 0 -.56-.21z" fill="#093f68"/><rect fill="#fff" height="13.96" rx="6.98" width="59.98" x="170.01" y="184.51"/><path d="m223 199.46h-46a8 8 0 1 1 0-16h46a8 8 0 1 1 0 16zm-46-14a6 6 0 1 0 0 12h46a6 6 0 1 0 0-12z" fill="#dfeaef"/></svg>